<?xml version="1.0" encoding="UTF-8"?>
<svg width="74px" height="246px" viewBox="0 0 74 246" version="1.1" xmlns="http://www.w3.org/2000/svg" xmlns:xlink="http://www.w3.org/1999/xlink">
  <g stroke="none" stroke-width="1" fill="none" fill-rule="evenodd">
    <path
      d="M0,0 L69.9952008,0 C72.2069903,0 74,1.79071605 74,3.99980519 L74,11.6106356 C74,13.819667 72.2160546,15.6104408 69.9993758,15.6104408 L15.0020386,15.6104408 C12.7925549,15.6104408 11.0014144,17.4082596 11.0014144,19.6191904 L11.0014144,62.9618097 C11.0014144,65.175781 12.7975658,66.9705594 15.0062888,66.9705594 L65.9369327,66.9705594 C68.1487638,66.9705594 69.9418071,68.7653215 69.9418071,70.98037 L69.9418071,79.4383759 C69.9418071,81.6529331 68.1523538,83.4481865 65.9461328,83.4481865 L7.67694987,83.4481865 C5.47019987,83.4481865 3.68127554,85.2369866 3.68127554,87.4392337 L3.68127554,99.4162178 C3.68127554,101.620412 5.46934516,103.407265 7.68226627,103.407265 L41.6056716,103.407265 C43.8153577,103.407265 45.6066623,105.206201 45.6066623,107.400225 L45.6066623,160.630629 C45.6066623,162.83588 43.8245438,164.623589 41.6143117,164.623589 L12.1275379,164.623589 C9.92262354,164.623589 8.13518728,166.414554 8.13518728,168.619466 L8.13518728,180.610941 C8.13518728,182.817803 9.93590797,184.606817 12.1321096,184.606817 L65.4153356,184.606817 C67.6227749,184.606817 69.4276771,186.394433 69.4467989,188.611313 L69.9072662,241.995504 C69.9263426,244.207126 68.142613,246 65.9429521,246 L0,246 L0,0 Z"
      fill="#B85CA8"></path>
  </g>
</svg>
